<svg data-v-423bf9ae="" xmlns="http://www.w3.org/2000/svg" viewBox="0 0 425 112" class="iconLeft"><!----><!----><defs data-v-423bf9ae=""><linearGradient data-v-423bf9ae="" gradientTransform="rotate(25)" id="a4c75947-7e10-4f19-89d5-17226a4de993" x1="0%" y1="0%" x2="100%" y2="0%"><stop data-v-423bf9ae="" offset="0%" style="stop-color: rgb(31, 29, 28); stop-opacity: 1;"></stop><stop data-v-423bf9ae="" offset="100%" style="stop-color: rgb(9, 5, 116); stop-opacity: 1;"></stop></linearGradient></defs><g data-v-423bf9ae="" id="2650b643-5fa9-47eb-9752-82f06b29166c" fill="url(#a4c75947-7e10-4f19-89d5-17226a4de993)" transform="matrix(4.819276809692383,0,0,4.819276809692383,128.3627471923828,14.3749361038208)"><path d="M3.62 4.71L4.63 4.71L4.63 4.71Q4.76 4.71 4.85 4.74L4.85 4.74L4.85 4.74Q4.94 4.77 5.01 4.85L5.01 4.85L5.01 4.85Q5.08 4.92 5.14 5.04L5.14 5.04L5.14 5.04Q5.20 5.17 5.27 5.35L5.27 5.35L8.41 13.73L8.41 13.73Q8.44 13.82 8.46 13.90L8.46 13.90L8.46 13.90Q8.47 13.97 8.47 14.05L8.47 14.05L8.47 14.05Q8.47 14.29 8.32 14.41L8.32 14.41L8.32 14.41Q8.18 14.53 8.01 14.53L8.01 14.53L4.14 14.53L4.14 14.53Q3.96 14.53 3.84 14.48L3.84 14.48L3.84 14.48Q3.72 14.44 3.64 14.38L3.64 14.38L3.64 14.38Q3.55 14.31 3.51 14.25L3.51 14.25L3.51 14.25Q3.47 14.18 3.45 14.12L3.45 14.12L3.38 13.88L1.46 13.88L1.41 14.09L1.41 14.09Q1.39 14.19 1.36 14.27L1.36 14.27L1.36 14.27Q1.33 14.35 1.29 14.41L1.29 14.41L1.29 14.41Q1.25 14.46 1.18 14.50L1.18 14.50L1.18 14.50Q1.11 14.53 0.99 14.53L0.99 14.53L0.29 14.53L0.29 14.53Q0.07 14.53 0.07 14.36L0.07 14.36L0.07 14.36Q0.07 14.29 0.09 14.21L0.09 14.21L0.09 14.21Q0.12 14.12 0.16 14.01L0.16 14.01L3.01 5.36L3.01 5.36Q3.12 5.04 3.25 4.88L3.25 4.88L3.25 4.88Q3.38 4.72 3.62 4.71L3.62 4.71ZM2.39 10.37L1.67 13.04L3.14 13.04L2.39 10.37ZM15.87 11.68L14.51 11.68L14.51 13.57L14.51 13.57Q14.51 13.82 14.47 14.00L14.47 14.00L14.47 14.00Q14.44 14.18 14.33 14.29L14.33 14.29L14.33 14.29Q14.22 14.41 14.02 14.47L14.02 14.47L14.02 14.47Q13.82 14.53 13.48 14.53L13.48 14.53L10.51 14.53L10.51 14.53Q10.19 14.53 9.98 14.46L9.98 14.46L9.98 14.46Q9.78 14.40 9.66 14.29L9.66 14.29L9.66 14.29Q9.54 14.17 9.50 13.99L9.50 13.99L9.50 13.99Q9.46 13.82 9.46 13.58L9.46 13.58L9.46 11.68L8.89 11.68L8.89 11.68Q8.75 11.68 8.75 11.53L8.75 11.53L8.75 10.99L8.75 10.99Q8.75 10.84 8.89 10.84L8.89 10.84L9.46 10.84L9.46 6.71L9.46 6.71Q9.46 5.97 9.61 5.43L9.61 5.43L9.61 5.43Q9.77 4.88 10.03 4.49L10.03 4.49L10.03 4.49Q10.29 4.09 10.65 3.84L10.65 3.84L10.65 3.84Q11.01 3.59 11.42 3.44L11.42 3.44L11.42 3.44Q11.83 3.29 12.27 3.24L12.27 3.24L12.27 3.24Q12.71 3.19 13.15 3.19L13.15 3.19L13.15 3.19Q13.52 3.19 13.94 3.23L13.94 3.23L13.94 3.23Q14.35 3.28 14.73 3.36L14.73 3.36L14.73 3.36Q15.12 3.44 15.46 3.54L15.46 3.54L15.46 3.54Q15.79 3.65 16.02 3.76L16.02 3.76L16.02 3.76Q16.08 3.79 16.14 3.84L16.14 3.84L16.14 3.84Q16.20 3.90 16.20 4.03L16.20 4.03L16.20 4.51L16.20 4.51Q16.20 4.60 16.17 4.62L16.17 4.62L16.17 4.62Q16.13 4.63 16.11 4.63L16.11 4.63L16.11 4.63Q16.02 4.63 15.91 4.59L15.91 4.59L15.91 4.59Q15.81 4.55 15.61 4.55L15.61 4.55L15.61 4.55Q15.38 4.55 15.18 4.65L15.18 4.65L15.18 4.65Q14.98 4.74 14.83 4.97L14.83 4.97L14.83 4.97Q14.68 5.20 14.59 5.60L14.59 5.60L14.59 5.60Q14.51 6.00 14.51 6.60L14.51 6.60L14.51 10.84L15.87 10.84L15.87 10.84Q16.02 10.84 16.02 10.99L16.02 10.99L16.02 11.53L16.02 11.53Q16.02 11.68 15.87 11.68L15.87 11.68ZM16.83 13.58L16.83 8.48L16.83 8.48Q16.83 8.24 16.87 8.06L16.87 8.06L16.87 8.06Q16.91 7.88 17.03 7.77L17.03 7.77L17.03 7.77Q17.14 7.65 17.35 7.59L17.35 7.59L17.35 7.59Q17.55 7.53 17.88 7.53L17.88 7.53L20.88 7.53L20.88 7.53Q21.19 7.53 21.39 7.58L21.39 7.58L21.39 7.58Q21.58 7.64 21.69 7.76L21.69 7.76L21.69 7.76Q21.80 7.88 21.83 8.05L21.83 8.05L21.83 8.05Q21.87 8.23 21.87 8.48L21.87 8.48L21.87 13.59L21.87 13.59Q21.87 13.82 21.83 14.00L21.83 14.00L21.83 14.00Q21.80 14.17 21.69 14.29L21.69 14.29L21.69 14.29Q21.58 14.41 21.39 14.47L21.39 14.47L21.39 14.47Q21.19 14.53 20.88 14.53L20.88 14.53L17.88 14.53L17.88 14.53Q17.55 14.53 17.35 14.46L17.35 14.46L17.35 14.46Q17.14 14.40 17.03 14.29L17.03 14.29L17.03 14.29Q16.91 14.17 16.87 13.99L16.87 13.99L16.87 13.99Q16.83 13.82 16.83 13.58L16.83 13.58ZM17.08 4.60L17.08 4.60L17.08 4.60Q17.08 4.13 17.26 3.71L17.26 3.71L17.26 3.71Q17.45 3.29 17.75 2.99L17.75 2.99L17.75 2.99Q18.06 2.68 18.48 2.50L18.48 2.50L18.48 2.50Q18.89 2.32 19.37 2.32L19.37 2.32L19.37 2.32Q19.83 2.32 20.24 2.50L20.24 2.50L20.24 2.50Q20.66 2.68 20.97 2.99L20.97 2.99L20.97 2.99Q21.27 3.29 21.45 3.71L21.45 3.71L21.45 3.71Q21.64 4.13 21.64 4.60L21.64 4.60L21.64 4.60Q21.64 5.07 21.45 5.48L21.45 5.48L21.45 5.48Q21.27 5.89 20.97 6.20L20.97 6.20L20.97 6.20Q20.66 6.51 20.24 6.69L20.24 6.69L20.24 6.69Q19.83 6.87 19.37 6.87L19.37 6.87L19.37 6.87Q18.89 6.87 18.48 6.69L18.48 6.69L18.48 6.69Q18.06 6.51 17.75 6.20L17.75 6.20L17.75 6.20Q17.45 5.89 17.26 5.48L17.26 5.48L17.26 5.48Q17.08 5.07 17.08 4.60ZM29.63 14.53L25.98 14.53L25.98 14.53Q25.61 14.53 25.24 14.48L25.24 14.48L25.24 14.48Q24.87 14.43 24.53 14.32L24.53 14.32L24.53 14.32Q24.19 14.22 23.90 14.05L23.90 14.05L23.90 14.05Q23.60 13.88 23.39 13.62L23.39 13.62L23.39 13.62Q23.17 13.37 23.05 13.03L23.05 13.03L23.05 13.03Q22.93 12.69 22.93 12.24L22.93 12.24L22.93 12.24Q22.93 11.65 23.15 11.22L23.15 11.22L23.15 11.22Q23.38 10.80 23.76 10.52L23.76 10.52L23.76 10.52Q24.14 10.24 24.63 10.09L24.63 10.09L24.63 10.09Q25.12 9.94 25.65 9.90L25.65 9.90L25.65 9.43L25.65 9.43Q25.65 9.16 25.58 9.00L25.58 9.00L25.58 9.00Q25.51 8.85 25.41 8.77L25.41 8.77L25.41 8.77Q25.30 8.69 25.17 8.66L25.17 8.66L25.17 8.66Q25.05 8.64 24.93 8.64L24.93 8.64L24.93 8.64Q24.79 8.64 24.64 8.68L24.64 8.68L24.64 8.68Q24.49 8.72 24.34 8.78L24.34 8.78L24.34 8.78Q24.20 8.84 24.07 8.91L24.07 8.91L24.07 8.91Q23.94 8.98 23.85 9.03L23.85 9.03L23.85 9.03Q23.81 9.06 23.78 9.08L23.78 9.08L23.78 9.08Q23.74 9.10 23.71 9.10L23.71 9.10L23.71 9.10Q23.65 9.10 23.59 9.01L23.59 9.01L23.36 8.64L23.36 8.64Q23.32 8.59 23.32 8.54L23.32 8.54L23.32 8.54Q23.32 8.48 23.37 8.44L23.37 8.44L23.37 8.44Q23.41 8.40 23.45 8.37L23.45 8.37L23.45 8.37Q23.68 8.22 24.03 8.05L24.03 8.05L24.03 8.05Q24.38 7.89 24.81 7.76L24.81 7.76L24.81 7.76Q25.25 7.63 25.75 7.55L25.75 7.55L25.75 7.55Q26.26 7.46 26.80 7.46L26.80 7.46L26.80 7.46Q27.31 7.46 27.80 7.50L27.80 7.50L27.80 7.50Q28.29 7.53 28.72 7.65L28.72 7.65L28.72 7.65Q29.16 7.76 29.51 7.97L29.51 7.97L29.51 7.97Q29.87 8.18 30.14 8.52L30.14 8.52L30.14 8.52Q30.40 8.86 30.54 9.36L30.54 9.36L30.54 9.36Q30.69 9.86 30.69 10.55L30.69 10.55L30.69 13.60L30.69 13.60Q30.69 13.83 30.65 14.00L30.65 14.00L30.65 14.00Q30.60 14.18 30.49 14.29L30.49 14.29L30.49 14.29Q30.37 14.41 30.17 14.47L30.17 14.47L30.17 14.47Q29.96 14.53 29.63 14.53L29.63 14.53ZM25.65 13.65L25.65 10.77L25.65 10.77Q25.16 10.77 24.82 10.89L24.82 10.89L24.82 10.89Q24.49 11.01 24.28 11.22L24.28 11.22L24.28 11.22Q24.08 11.42 23.99 11.69L23.99 11.69L23.99 11.69Q23.90 11.96 23.90 12.25L23.90 12.25L23.90 12.25Q23.90 12.54 23.99 12.79L23.99 12.79L23.99 12.79Q24.08 13.05 24.28 13.24L24.28 13.24L24.28 13.24Q24.49 13.43 24.82 13.54L24.82 13.54L24.82 13.54Q25.16 13.65 25.65 13.65L25.65 13.65ZM43.78 8.14L41.24 8.14L41.24 13.69L41.24 13.69Q41.90 13.59 42.46 13.51L42.46 13.51L42.46 13.51Q42.69 13.48 42.93 13.45L42.93 13.45L42.93 13.45Q43.16 13.42 43.36 13.39L43.36 13.39L43.36 13.39Q43.56 13.36 43.70 13.35L43.70 13.35L43.70 13.35Q43.85 13.34 43.90 13.34L43.90 13.34L43.90 13.34Q44.02 13.34 44.10 13.38L44.10 13.38L44.10 13.38Q44.18 13.43 44.18 13.56L44.18 13.56L44.18 14.19L44.18 14.19Q44.18 14.31 44.12 14.42L44.12 14.42L44.12 14.42Q44.06 14.53 43.83 14.53L43.83 14.53L37.18 14.53L37.18 14.53Q36.86 14.53 36.66 14.46L36.66 14.46L36.66 14.46Q36.46 14.40 36.34 14.29L36.34 14.29L36.34 14.29Q36.22 14.17 36.18 13.99L36.18 13.99L36.18 13.99Q36.14 13.82 36.14 13.58L36.14 13.58L36.14 5.90L36.14 5.90Q36.14 5.51 36.23 5.27L36.23 5.27L36.23 5.27Q36.32 5.04 36.48 4.91L36.48 4.91L36.48 4.91Q36.65 4.79 36.88 4.75L36.88 4.75L36.88 4.75Q37.11 4.71 37.39 4.71L37.39 4.71L43.57 4.71L43.57 4.71Q43.80 4.71 43.86 4.82L43.86 4.82L43.86 4.82Q43.93 4.92 43.93 5.05L43.93 5.05L43.93 5.54L43.93 5.54Q43.93 5.67 43.86 5.72L43.86 5.72L43.86 5.72Q43.78 5.76 43.67 5.76L43.67 5.76L43.67 5.76Q43.60 5.76 43.46 5.75L43.46 5.75L43.46 5.75Q43.32 5.74 43.13 5.71L43.13 5.71L43.13 5.71Q42.95 5.69 42.74 5.66L42.74 5.66L42.74 5.66Q42.53 5.63 42.31 5.60L42.31 5.60L42.31 5.60Q41.82 5.52 41.24 5.43L41.24 5.43L41.24 7.16L43.78 7.16L43.78 7.16Q43.93 7.16 43.93 7.31L43.93 7.31L43.93 7.99L43.93 7.99Q43.93 8.14 43.78 8.14L43.78 8.14ZM45.09 13.58L45.09 4.28L45.09 4.28Q45.09 4.05 45.13 3.87L45.13 3.87L45.13 3.87Q45.17 3.68 45.29 3.57L45.29 3.57L45.29 3.57Q45.40 3.45 45.61 3.39L45.61 3.39L45.61 3.39Q45.81 3.33 46.14 3.33L46.14 3.33L49.14 3.33L49.14 3.33Q49.45 3.33 49.64 3.39L49.64 3.39L49.64 3.39Q49.83 3.45 49.94 3.57L49.94 3.57L49.94 3.57Q50.05 3.68 50.09 3.87L50.09 3.87L50.09 3.87Q50.13 4.05 50.13 4.28L50.13 4.28L50.13 9.21L51.77 7.59L51.77 7.59Q51.84 7.51 51.91 7.48L51.91 7.48L51.91 7.48Q51.98 7.45 52.04 7.45L52.04 7.45L52.04 7.45Q52.16 7.45 52.25 7.55L52.25 7.55L52.59 7.91L52.59 7.91Q52.66 8.00 52.66 8.08L52.66 8.08L52.66 8.08Q52.66 8.16 52.61 8.23L52.61 8.23L52.61 8.23Q52.56 8.31 52.45 8.39L52.45 8.39L50.31 9.97L50.31 9.97Q50.87 9.99 51.26 10.12L51.26 10.12L51.26 10.12Q51.65 10.25 51.89 10.49L51.89 10.49L51.89 10.49Q52.13 10.73 52.24 11.08L52.24 11.08L52.24 11.08Q52.34 11.44 52.34 11.91L52.34 11.91L52.34 14.21L52.34 14.21Q52.34 14.32 52.31 14.39L52.31 14.39L52.31 14.39Q52.28 14.45 52.24 14.48L52.24 14.48L52.24 14.48Q52.19 14.51 52.13 14.52L52.13 14.52L52.13 14.52Q52.07 14.53 52.01 14.53L52.01 14.53L51.57 14.53L51.57 14.53Q51.39 14.53 51.34 14.42L51.34 14.42L51.34 14.42Q51.29 14.32 51.29 14.21L51.29 14.21L51.29 11.84L51.29 11.84Q51.29 11.53 51.23 11.32L51.23 11.32L51.23 11.32Q51.17 11.11 51.04 10.98L51.04 10.98L51.04 10.98Q50.90 10.86 50.68 10.80L50.68 10.80L50.68 10.80Q50.46 10.74 50.13 10.73L50.13 10.73L50.13 13.59L50.13 13.59Q50.13 13.82 50.08 14.00L50.08 14.00L50.08 14.00Q50.04 14.17 49.92 14.29L49.92 14.29L49.92 14.29Q49.79 14.41 49.57 14.47L49.57 14.47L49.57 14.47Q49.36 14.53 49.01 14.53L49.01 14.53L46.14 14.53L46.14 14.53Q45.81 14.53 45.61 14.46L45.61 14.46L45.61 14.46Q45.40 14.40 45.29 14.29L45.29 14.29L45.29 14.29Q45.17 14.17 45.13 13.99L45.13 13.99L45.13 13.99Q45.09 13.82 45.09 13.58L45.09 13.58ZM59.60 13.39L59.60 13.39L59.60 13.39Q59.79 13.39 59.94 13.34L59.94 13.34L59.94 13.34Q60.09 13.29 60.21 13.23L60.21 13.23L60.21 13.23Q60.33 13.17 60.41 13.11L60.41 13.11L60.41 13.11Q60.48 13.06 60.53 13.06L60.53 13.06L60.53 13.06Q60.59 13.06 60.61 13.08L60.61 13.08L60.61 13.08Q60.63 13.10 60.67 13.16L60.67 13.16L60.91 13.53L60.91 13.53Q60.94 13.58 60.94 13.62L60.94 13.62L60.94 13.62Q60.94 13.67 60.92 13.70L60.92 13.70L60.92 13.70Q60.89 13.73 60.86 13.75L60.86 13.75L60.86 13.75Q60.63 13.90 60.31 14.09L60.31 14.09L60.31 14.09Q59.98 14.27 59.54 14.42L59.54 14.42L59.54 14.42Q59.11 14.57 58.56 14.67L58.56 14.67L58.56 14.67Q58.02 14.77 57.36 14.77L57.36 14.77L57.36 14.77Q56.85 14.77 56.33 14.68L56.33 14.68L56.33 14.68Q55.82 14.60 55.35 14.42L55.35 14.42L55.35 14.42Q54.89 14.25 54.48 13.96L54.48 13.96L54.48 13.96Q54.08 13.67 53.78 13.25L53.78 13.25L53.78 13.25Q53.48 12.84 53.31 12.29L53.31 12.29L53.31 12.29Q53.14 11.74 53.14 11.03L53.14 11.03L53.14 11.03Q53.14 10.33 53.31 9.78L53.31 9.78L53.31 9.78Q53.48 9.23 53.78 8.81L53.78 8.81L53.78 8.81Q54.08 8.39 54.48 8.10L54.48 8.10L54.48 8.10Q54.89 7.81 55.35 7.63L55.35 7.63L55.35 7.63Q55.82 7.45 56.33 7.37L56.33 7.37L56.33 7.37Q56.85 7.29 57.36 7.29L57.36 7.29L57.36 7.29Q58.21 7.29 58.95 7.48L58.95 7.48L58.95 7.48Q59.68 7.67 60.22 8.11L60.22 8.11L60.22 8.11Q60.76 8.54 61.07 9.26L61.07 9.26L61.07 9.26Q61.38 9.97 61.38 11.00L61.38 11.00L61.38 11.38L61.38 11.38Q61.38 11.50 61.32 11.57L61.32 11.57L61.32 11.57Q61.26 11.64 61.11 11.64L61.11 11.64L58.28 11.64L58.28 11.64Q58.34 12.15 58.48 12.49L58.48 12.49L58.48 12.49Q58.62 12.82 58.80 13.03L58.80 13.03L58.80 13.03Q58.98 13.23 59.19 13.31L59.19 13.31L59.19 13.31Q59.40 13.39 59.60 13.39ZM58.26 10.80L60.41 10.80L60.41 10.80Q60.41 10.25 60.32 9.90L60.32 9.90L60.32 9.90Q60.24 9.54 60.09 9.32L60.09 9.32L60.09 9.32Q59.95 9.11 59.76 9.02L59.76 9.02L59.76 9.02Q59.56 8.93 59.35 8.93L59.35 8.93L59.35 8.93Q59.19 8.93 59.01 8.99L59.01 8.99L59.01 8.99Q58.82 9.05 58.66 9.25L58.66 9.25L58.66 9.25Q58.50 9.45 58.39 9.82L58.39 9.82L58.39 9.82Q58.28 10.19 58.26 10.80L58.26 10.80Z"></path></g><!----><g data-v-423bf9ae="" id="8531c31b-7c50-4b9f-a00d-944d4fa80b97" transform="matrix(1.111112117767334,0,0,1.111112117767334,-0.47060680389404297,0.44435256719589233)" stroke="none" fill="#070574"><path d="M76.012 89.344l22.903-4.502-7.779-31.188-4.837.949-.167-.838c-.393-1.951-1.857-3.463-3.67-4.037l-3.187-14.436a3.846 3.846 0 0 0-1.542-2.14l-15.581-10.58-.09-.061-.357-.242-.019.029c-1.134-.689-2.445-1.121-3.859-1.144-3.11-.106-5.678 1.618-6.961 4.132l-9.059 12.627-16.142 4.83.28 1.117c-1.867.373-3.35 1.664-3.964 3.454l-6.464-4.453L1.085 62.259l11.49 7.917 1.903-23.114 7.481.343c-.145.443-.321.879-.343 1.368l-.032.727-5.171-.237-2.789 33.917 23.319 1.066.308-34.032-4.968-.226.032-.726c.027-.506-.113-.972-.222-1.444l12.978-2.771a3.853 3.853 0 0 0 2.183-1.492l1.854-2.579a80.2 80.2 0 0 0 .339 6.383C36.559 69.347 39.371 85.8 39.371 85.8s1.089-.85 3.888-1.352l.465 15.418 5.74.134 1.252-15.767c1.306.106 2.735.273 4.326.538 1.858.312 3.671.459 5.411.497l7.064 13.803 5.614-2.559-4.746-11.852c1.749-.287 3.372-.62 4.674-.975l-4.791-27.749 1.654-.332c-2.197-4.878-4.602-7.671-4.602-7.671.298-1.659.181-4.92-.081-8.357l.09-5.515 6.907 4.688 4.524 12.749c-.1.132-.249.211-.344.351a5.319 5.319 0 0 0-.791 4.023l.158.8-5.116 1.006 5.345 31.666zM30.068 49.887l-6.274-.287.036-.728c.063-1.512 1.216-2.665 2.658-2.897l.732 2.884 2.744-.585c.068.289.149.576.136.886l-.032.727zm47.729 5.549c-.158-.779.009-1.564.42-2.24l4.051-1.147c.836.425 1.496 1.185 1.694 2.153l.163.832-6.161 1.209-.167-.807zM55.802 18.892c1.388.201 2.734.052 3.991-.337 4.077-.515 8.868-3.439 7.621-9.96C65.751-.118 56.796 0 56.796 0c-4.909.222-8.181 2.825-9.148 6.08-.312 1.071-.045 1.971.42 2.719-.574 4.895 2.834 9.381 7.734 10.093z"></path><path d="M67.423 16.905c2.834 3.069 6.821 4.118 12.097-.031 0 0-4.132-.011-6.618-3.89-2.482-3.878-8.313.852-5.479 3.921z"></path></g><!----></svg>