<svg data-v-423bf9ae="" xmlns="http://www.w3.org/2000/svg" viewBox="0 0 389 112" class="iconLeft"><!----><!----><defs data-v-423bf9ae=""><linearGradient data-v-423bf9ae="" gradientTransform="rotate(25)" id="3b8d9e71-216d-4afa-9599-842e9058a1aa" x1="0%" y1="0%" x2="100%" y2="0%"><stop data-v-423bf9ae="" offset="0%" style="stop-color: rgb(243, 42, 194); stop-opacity: 1;"></stop><stop data-v-423bf9ae="" offset="100%" style="stop-color: rgb(255, 161, 1); stop-opacity: 1;"></stop></linearGradient></defs><g data-v-423bf9ae="" id="9fba754a-a2bd-422c-8173-17f7528a622c" fill="url(#3b8d9e71-216d-4afa-9599-842e9058a1aa)" transform="matrix(4.297994613647461,0,0,4.297994613647461,128.27029418945312,9.00837516784668)"><path d="M2.65 13.02L2.65 13.02L2.65 13.02Q3.72 10.77 5.45 7.42L5.45 7.42L5.45 7.42Q6.13 6.08 6.78 5.54L6.78 5.54L6.78 5.54Q6.99 5.36 8.81 4.34L8.81 4.34L8.81 4.34Q9.07 4.19 9.34 4.02L9.34 4.02L9.34 4.02Q9.66 3.85 9.93 3.85L9.93 3.85L9.93 4.06L9.93 4.06Q9.30 4.54 9.09 5.18L9.09 5.18L9.09 5.18Q8.93 5.66 8.93 6.61L8.93 6.61L8.93 6.61Q8.93 9.37 10.35 12.46L10.35 12.46L10.35 12.46Q10.42 12.61 11.00 13.41L11.00 13.41L11.00 13.41Q11.48 14.06 11.48 14.34L11.48 14.34L11.48 14.34Q11.48 14.98 10.81 15.30L10.81 15.30L10.81 15.30Q10.29 15.55 9.56 15.55L9.56 15.55L9.56 15.55Q8.68 15.55 8.06 14.15L8.06 14.15L8.06 14.15Q7.92 13.82 7.41 12.04L7.41 12.04L7.41 12.04Q7.25 12.12 5.96 12.56L5.96 12.56L5.96 12.56Q4.76 12.96 4.75 13.02L4.75 13.02L4.05 15.12L4.05 15.12Q3.96 15.26 3.77 15.40L3.77 15.40L0.55 17.64L0.55 17.64Q0.31 17.81 0.10 17.81L0.10 17.81L0.10 17.81Q0.10 17.50 0.52 17.00L0.52 17.00L0.52 17.00Q1.04 16.37 1.11 16.24L1.11 16.24L1.11 16.24Q1.86 14.80 2.51 13.44L2.51 13.44L2.51 13.44Q2.60 13.23 2.65 13.02ZM6.43 8.54L6.43 8.54L6.43 8.54Q6.33 8.58 5.88 9.72L5.88 9.72L5.88 9.72Q5.43 10.85 5.43 11.06L5.43 11.06L6.99 11.06L6.99 11.06Q7.01 11.06 7.07 10.94L7.07 10.94L7.07 10.94Q7.13 10.82 7.13 10.78L7.13 10.78L7.13 10.78Q7.13 10.58 6.82 9.58L6.82 9.58L6.82 9.58Q6.51 8.58 6.43 8.54ZM18.06 11.24L18.06 11.24L18.06 11.24Q17.53 11.24 15.95 11.12L15.95 11.12L15.95 11.19L15.95 11.19Q15.86 11.19 15.46 11.20L15.46 11.20L15.32 11.34L15.32 13.16L15.26 13.16L15.26 13.16Q15.26 14.07 15.27 14.27L15.27 14.27L15.27 14.27Q15.15 14.91 14.11 15.41L14.11 15.41L14.11 15.41Q13.20 15.86 12.50 15.86L12.50 15.86L12.50 15.86Q12.50 15.53 12.67 14.99L12.67 14.99L12.67 15.01L12.67 15.01Q13.02 13.96 13.06 11.45L13.06 11.45L13.06 11.45Q12.43 11.03 11.54 10.64L11.54 10.64L11.54 10.32L11.54 10.32Q11.94 10.32 12.38 10.22L12.38 10.22L12.38 10.22Q12.45 10.21 12.59 10.10L12.59 10.10L12.59 10.10Q12.73 10.00 12.73 9.94L12.73 9.94L12.73 5.88L12.73 5.88Q12.73 5.82 12.98 5.43L12.98 5.43L12.98 5.43Q13.15 5.15 13.36 4.90L13.36 4.90L13.36 4.90Q13.73 4.51 14 4.40L14 4.40L14 4.40Q14.27 4.30 14.83 4.30L14.83 4.30L14.83 4.30Q15.93 4.30 16.84 5.53L16.84 5.53L16.84 5.53Q17.67 6.65 17.67 7.84L17.67 7.84L17.28 7.84L15.88 6.44L15.88 6.44Q15.82 6.38 15.60 6.38L15.60 6.38L15.60 6.38Q15.11 6.38 15.11 7.48L15.11 7.48L15.11 7.48Q15.11 7.38 15.13 7.97L15.13 7.97L15.15 8.26L15.15 8.26Q15.15 8.65 15.18 9.10L15.18 9.10L15.32 9.24L15.32 9.24Q15.39 9.23 15.85 9.25L15.85 9.25L15.85 9.24L15.89 9.24L15.89 9.24Q15.92 9.25 15.93 9.25L15.93 9.25L15.93 9.25Q15.93 9.25 15.95 9.27L15.95 9.27L16.02 9.27L16.02 9.30L16.02 9.30Q16.51 9.51 17.23 10.14L17.23 10.14L17.23 10.14Q18.06 10.85 18.06 11.24ZM19.54 14.32L19.54 10.99L19.54 10.99Q19.36 10.99 19.01 11.14L19.01 11.14L19.01 11.14Q18.65 11.28 18.47 11.28L18.47 11.28L18.47 11.28Q18.47 10.40 19.95 9.45L19.95 9.45L19.95 9.45Q21.32 8.57 22.23 8.57L22.23 8.57L22.23 8.57Q22.23 8.86 21.78 9.84L21.78 9.84L21.78 10.36L21.78 10.36Q21.78 10.37 21.77 10.72L21.77 10.72L21.77 10.72Q21.77 10.81 21.77 10.89L21.77 10.89L21.77 10.89Q21.77 11.76 21.78 11.94L21.78 11.94L21.78 11.94Q21.83 12.50 21.92 12.50L21.92 12.50L22.20 12.50L23.74 11.52L23.74 11.52Q23.77 11.51 23.81 11.51L23.81 11.51L23.81 11.51Q24.04 11.51 24.04 12.17L24.04 12.17L24.04 12.17Q24.04 12.98 22.72 14.22L22.72 14.22L22.72 14.22Q21.39 15.46 20.57 15.46L20.57 15.46L20.57 15.46Q19.54 15.46 19.54 14.32L19.54 14.32ZM20.54 6.48L20.54 6.48L20.54 6.20L20.54 6.20Q20.54 6.10 20.52 6.01L20.52 6.01L20.52 5.92L20.52 5.92Q20.50 5.88 20.26 5.74L20.26 5.74L20.26 5.74Q20.09 5.64 20.09 5.50L20.09 5.50L20.09 5.50Q20.09 5.53 20.10 5.36L20.10 5.36L21.20 4.59L21.20 4.59Q21.98 4.09 22.50 4.09L22.50 4.09L22.50 4.09Q22.76 4.09 22.76 4.45L22.76 4.45L22.76 4.45Q22.76 5.74 21.08 7.60L21.08 7.60L21.08 7.60Q20.33 8.44 20.24 8.44L20.24 8.44L19.92 8.44L19.92 8.44Q19.92 8.15 20.23 7.48L20.23 7.48L20.23 7.48Q20.54 6.82 20.54 6.48ZM24.26 12.99L24.26 12.99L24.26 12.99Q24.26 11.55 25.01 10.39L25.01 10.39L25.01 10.39Q25.76 9.24 27.08 8.65L27.08 8.65L27.08 8.65Q27.64 8.40 28.60 8.36L28.60 8.36L28.60 8.36Q29.78 8.30 30.16 8.23L30.16 8.23L31.00 7.95L31.00 7.95Q31.04 7.95 31.08 7.94L31.08 7.94L31.16 7.94L31.16 7.94Q31.16 8.20 30.87 8.53L30.87 8.53L30.87 8.53Q30.49 8.93 30.44 9.07L30.44 9.07L30.44 9.07Q30.18 9.60 30.16 9.88L30.16 9.88L30.16 9.88Q30.14 10.00 30.14 10.70L30.14 10.70L30.14 11.55L30.14 11.55Q30.14 12.31 30.51 12.31L30.51 12.31L30.51 12.31Q30.53 12.31 30.58 12.29L30.58 12.29L31.28 11.73L31.28 11.73Q31.32 11.72 31.51 11.69L31.51 11.69L31.51 11.69Q31.51 12.56 30.91 13.87L30.91 13.87L30.91 13.87Q30.21 15.40 29.46 15.40L29.46 15.40L29.46 15.40Q29.26 15.40 29.18 15.37L29.18 15.37L29.18 15.37Q28.14 14.66 27.64 13.13L27.64 13.13L27.64 13.13Q27.26 13.87 26.84 14.57L26.84 14.57L26.84 14.57Q26.28 15.53 25.54 15.53L25.54 15.53L25.54 15.53Q24.26 15.53 24.26 12.99ZM26.22 11.89L26.22 11.89L26.22 11.89Q26.22 12.74 26.71 12.74L26.71 12.74L26.71 12.74Q27.13 12.74 27.62 11.62L27.62 11.62L27.62 11.62Q28.07 10.60 28.07 10.02L28.07 10.02L28.07 10.02Q26.94 10.02 26.58 10.39L26.58 10.39L26.58 10.39Q26.22 10.75 26.22 11.89ZM38.95 15.39L38.95 15.39L38.95 15.39Q38.70 15.39 38.21 15.48L38.21 15.48L38.21 15.48Q37.73 15.57 37.48 15.57L37.48 15.57L37.48 15.57Q37.48 15.30 37.66 14.91L37.66 14.91L37.66 14.91Q37.93 14.35 37.94 14.28L37.94 14.28L37.94 14.28Q38.22 13.33 38.23 11.23L38.23 11.23L38.25 9.38L38.25 9.38Q38.26 8.36 37.94 7.56L37.94 7.56L37.94 7.56Q37.87 7.38 37.62 7.38L37.62 7.38L37.62 7.38Q37.53 7.38 37.35 7.41L37.35 7.41L37.35 7.41Q37.17 7.43 37.09 7.43L37.09 7.43L37.09 7.43Q36.81 7.43 36.81 7.14L36.81 7.14L36.81 7.14Q36.81 6.57 38.63 5.52L38.63 5.52L38.63 5.52Q40.35 4.52 40.92 4.52L40.92 4.52L40.92 4.52Q40.92 4.84 40.84 5.04L40.84 5.04L40.60 5.60L40.60 5.74L40.60 5.74Q40.64 5.84 40.74 5.88L40.74 5.88L41.44 5.88L41.44 5.88Q41.47 5.88 41.92 5.89L41.92 5.89L41.92 5.89Q42.03 5.89 42.14 5.89L42.14 5.89L42.14 5.89Q42.81 5.89 44.17 5.80L44.17 5.80L44.17 5.80Q45.53 5.71 46.20 5.71L46.20 5.71L46.20 5.88L46.20 5.88Q46.20 5.94 45.91 6.22L45.91 6.22L45.91 6.22Q45.63 6.50 45.50 6.58L45.50 6.58L45.50 6.58Q44.62 7.24 43.82 7.70L43.82 7.70L43.40 7.70L43.40 7.70Q43.26 7.70 43.12 7.71L43.12 7.71L42.98 7.71L42.98 7.71Q42.59 7.71 41.79 7.65L41.79 7.65L41.79 7.65Q40.99 7.59 40.60 7.59L40.60 7.59L40.60 9.65L40.60 9.65Q40.92 9.65 41.53 9.52L41.53 9.52L41.53 9.52Q42.14 9.39 42.42 9.38L42.42 9.38L42.42 9.38Q43.37 9.34 45.30 9.34L45.30 9.34L45.30 9.34Q45.30 9.79 44.21 10.30L44.21 10.30L44.21 10.30Q43.26 10.75 42.70 10.78L42.70 10.78L42.70 10.78Q41.41 10.84 40.60 10.92L40.60 10.92L40.60 10.92Q40.63 11.38 40.63 11.87L40.63 11.87L40.63 11.87Q40.63 12.35 40.60 12.88L40.60 12.88L40.46 13.30L40.46 13.30Q40.49 13.22 40.49 13.58L40.49 13.58L40.49 13.58Q41.41 13.58 43.25 13.43L43.25 13.43L43.25 13.43Q45.08 13.27 46.00 13.27L46.00 13.27L46.00 13.27Q46.00 13.78 44.31 14.81L44.31 14.81L44.31 14.81Q42.67 15.82 42.07 15.82L42.07 15.82L42.07 15.82Q41.54 15.82 40.51 15.60L40.51 15.60L40.51 15.60Q39.48 15.39 38.95 15.39ZM47.71 9.74L47.71 9.74L47.71 9.74Q47.71 9.31 47.42 6.94L47.42 6.94L47.42 6.94Q47.40 6.78 47.26 6.40L47.26 6.40L47.26 6.40Q47.12 6.02 47.12 5.81L47.12 5.81L47.12 5.81Q47.12 5.50 48.50 4.86L48.50 4.86L48.50 4.86Q49.80 4.24 50.25 4.24L50.25 4.24L50.25 4.24Q50.25 4.45 50.22 4.56L50.22 4.56L50.22 4.56Q49.78 6.33 49.78 7.64L49.78 7.64L49.78 7.76L49.78 7.76Q49.80 7.88 49.80 7.99L49.80 7.99L49.80 8.34L49.80 8.34Q49.84 8.44 49.94 8.48L49.94 8.48L49.94 8.48Q49.97 8.48 50.01 8.50L50.01 8.50L50.88 7.85L50.88 7.85Q51.74 7.21 52.35 7.21L52.35 7.21L52.35 7.21Q53.45 7.21 53.45 7.90L53.45 7.90L53.45 7.90Q53.45 8.43 53.05 8.95L53.05 8.95L53.05 8.95Q52.81 9.25 52.29 9.70L52.29 9.70L52.29 9.70Q51.88 10.05 51.88 10.15L51.88 10.15L51.88 10.15Q51.88 10.49 52.14 11.06L52.14 11.06L52.14 11.06Q52.43 11.72 52.75 11.72L52.75 11.72L52.75 11.72Q52.95 11.72 53.37 11.38L53.37 11.38L53.37 11.38Q53.79 11.05 54.04 11.05L54.04 11.05L54.04 11.05Q54.04 12.07 53.49 13.20L53.49 13.20L53.49 13.20Q52.86 14.52 51.97 14.52L51.97 14.52L51.97 14.52Q50.81 14.52 49.80 12.12L49.80 12.12L49.80 13.80L49.80 13.80Q49.69 14 49.52 14.22L49.52 14.22L49.52 14.22Q49.48 14.32 49.38 14.36L49.38 14.36L49.38 14.36Q47.82 15.55 47.14 16.04L47.14 16.04L46.83 16.04L46.83 16.04Q46.83 15.75 47.10 14.99L47.10 14.99L47.10 14.99Q47.38 14.24 47.42 13.94L47.42 13.94L47.42 13.94Q47.71 12.03 47.71 9.74ZM50.32 9.32L49.94 9.60L49.94 9.60Q49.84 9.88 49.80 10.16L49.80 10.16L49.80 10.26L49.80 10.26Q49.78 10.35 49.78 10.36L49.78 10.36L49.78 10.36Q50.09 10.36 50.61 9.99L50.61 9.99L50.61 9.99Q51.13 9.62 51.06 9.32L51.06 9.32L51.06 9.32Q51.04 9.25 50.94 9.15L50.94 9.15L50.94 9.15Q50.83 9.04 50.78 9.04L50.78 9.04L50.78 9.04Q50.68 9.04 50.32 9.32L50.32 9.32ZM54.64 12.82L54.64 12.82L54.64 12.82Q54.64 11.07 55.98 9.75L55.98 9.75L55.98 9.75Q57.32 8.43 59.07 8.43L59.07 8.43L59.07 8.43Q59.72 8.43 60.00 8.68L60.00 8.68L60.00 8.68Q60.27 8.93 60.27 9.58L60.27 9.58L60.27 9.58Q60.27 10.50 59.22 11.28L59.22 11.28L59.22 11.28Q58.34 11.82 57.46 12.36L57.46 12.36L57.32 12.50L57.32 12.50Q57.32 12.53 57.30 12.57L57.30 12.57L57.30 12.57Q57.30 12.80 57.62 13.05L57.62 13.05L57.62 13.05Q57.89 13.26 58.16 13.34L58.16 13.34L58.23 13.34L58.23 13.34Q58.65 13.34 59.51 12.69L59.51 12.69L59.51 12.69Q60.38 12.04 60.56 12.04L60.56 12.04L60.56 12.04Q60.56 13.23 59.33 14.34L59.33 14.34L59.33 14.34Q58.10 15.46 56.90 15.46L56.90 15.46L56.90 15.46Q55.85 15.46 55.22 14.64L55.22 14.64L55.22 14.64Q54.64 13.90 54.64 12.82ZM57.18 10.12L57.18 10.12L57.18 10.12Q56.67 10.81 56.67 11.56L56.67 11.56L56.67 11.56Q56.95 11.56 57.35 11.14L57.35 11.14L57.35 11.14Q57.75 10.71 57.75 10.42L57.75 10.42L57.75 10.42Q57.75 10.11 57.39 10.11L57.39 10.11L57.29 10.11L57.29 10.11Q57.19 10.12 57.18 10.12Z"></path></g><defs data-v-423bf9ae=""><linearGradient data-v-423bf9ae="" gradientTransform="rotate(25)" id="d30c3a06-975f-4893-8d89-b5c27e4a7690" x1="0%" y1="0%" x2="100%" y2="0%"><stop data-v-423bf9ae="" offset="0%" style="stop-color: rgb(243, 42, 194); stop-opacity: 1;"></stop><stop data-v-423bf9ae="" offset="100%" style="stop-color: rgb(255, 161, 1); stop-opacity: 1;"></stop></linearGradient></defs><g data-v-423bf9ae="" id="15d204dd-91ab-4885-9f22-45bff03c6c86" transform="matrix(1.111112117767334,0,0,1.111112117767334,-0.47060680389404297,0.44435256719589233)" stroke="none" fill="url(#d30c3a06-975f-4893-8d89-b5c27e4a7690)"><path d="M76.012 89.344l22.903-4.502-7.779-31.188-4.837.949-.167-.838c-.393-1.951-1.857-3.463-3.67-4.037l-3.187-14.436a3.846 3.846 0 0 0-1.542-2.14l-15.581-10.58-.09-.061-.357-.242-.019.029c-1.134-.689-2.445-1.121-3.859-1.144-3.11-.106-5.678 1.618-6.961 4.132l-9.059 12.627-16.142 4.83.28 1.117c-1.867.373-3.35 1.664-3.964 3.454l-6.464-4.453L1.085 62.259l11.49 7.917 1.903-23.114 7.481.343c-.145.443-.321.879-.343 1.368l-.032.727-5.171-.237-2.789 33.917 23.319 1.066.308-34.032-4.968-.226.032-.726c.027-.506-.113-.972-.222-1.444l12.978-2.771a3.853 3.853 0 0 0 2.183-1.492l1.854-2.579a80.2 80.2 0 0 0 .339 6.383C36.559 69.347 39.371 85.8 39.371 85.8s1.089-.85 3.888-1.352l.465 15.418 5.74.134 1.252-15.767c1.306.106 2.735.273 4.326.538 1.858.312 3.671.459 5.411.497l7.064 13.803 5.614-2.559-4.746-11.852c1.749-.287 3.372-.62 4.674-.975l-4.791-27.749 1.654-.332c-2.197-4.878-4.602-7.671-4.602-7.671.298-1.659.181-4.92-.081-8.357l.09-5.515 6.907 4.688 4.524 12.749c-.1.132-.249.211-.344.351a5.319 5.319 0 0 0-.791 4.023l.158.8-5.116 1.006 5.345 31.666zM30.068 49.887l-6.274-.287.036-.728c.063-1.512 1.216-2.665 2.658-2.897l.732 2.884 2.744-.585c.068.289.149.576.136.886l-.032.727zm47.729 5.549c-.158-.779.009-1.564.42-2.24l4.051-1.147c.836.425 1.496 1.185 1.694 2.153l.163.832-6.161 1.209-.167-.807zM55.802 18.892c1.388.201 2.734.052 3.991-.337 4.077-.515 8.868-3.439 7.621-9.96C65.751-.118 56.796 0 56.796 0c-4.909.222-8.181 2.825-9.148 6.08-.312 1.071-.045 1.971.42 2.719-.574 4.895 2.834 9.381 7.734 10.093z"></path><path d="M67.423 16.905c2.834 3.069 6.821 4.118 12.097-.031 0 0-4.132-.011-6.618-3.89-2.482-3.878-8.313.852-5.479 3.921z"></path></g><!----></svg>